<?xml version="1.0" encoding="UTF-8"?>
<!--Generator: Apple Native CoreSVG 123-->
<!DOCTYPE svg
PUBLIC "-//W3C//DTD SVG 1.1//EN"
       "http://www.w3.org/Graphics/SVG/1.1/DTD/svg11.dtd">
<svg version="1.1" xmlns="http://www.w3.org/2000/svg" xmlns:xlink="http://www.w3.org/1999/xlink" width="3300" height="2200">
 <!--glyph: "uni100648.medium", point size: 100.000000, font version: "Version 15.0d7e11", template writer version: "5"-->
 <g id="Notes">
  <rect height="2200" id="artboard" style="fill:white;opacity:1" width="3300" x="0" y="0"/>
  <line id="" style="fill:none;stroke:black;opacity:1;stroke-width:0.5;" x1="263" x2="3036" y1="292" y2="292"/>
  <text style="stroke:none;fill:black;font-family:-apple-system,&quot;SF Pro Display&quot;,&quot;SF Pro Text&quot;,Helvetica,sans-serif;font-weight:bold;" transform="matrix(1 0 0 1 263 322)">Weight/Scale Variations</text>
  <text style="stroke:none;fill:black;font-family:-apple-system,&quot;SF Pro Display&quot;,&quot;SF Pro Text&quot;,Helvetica,sans-serif;text-anchor:middle;" transform="matrix(1 0 0 1 559.711 322)">Ultralight</text>
  <text style="stroke:none;fill:black;font-family:-apple-system,&quot;SF Pro Display&quot;,&quot;SF Pro Text&quot;,Helvetica,sans-serif;text-anchor:middle;" transform="matrix(1 0 0 1 856.422 322)">Thin</text>
  <text style="stroke:none;fill:black;font-family:-apple-system,&quot;SF Pro Display&quot;,&quot;SF Pro Text&quot;,Helvetica,sans-serif;text-anchor:middle;" transform="matrix(1 0 0 1 1153.13 322)">Light</text>
  <text style="stroke:none;fill:black;font-family:-apple-system,&quot;SF Pro Display&quot;,&quot;SF Pro Text&quot;,Helvetica,sans-serif;text-anchor:middle;" transform="matrix(1 0 0 1 1449.84 322)">Regular</text>
  <text style="stroke:none;fill:black;font-family:-apple-system,&quot;SF Pro Display&quot;,&quot;SF Pro Text&quot;,Helvetica,sans-serif;text-anchor:middle;" transform="matrix(1 0 0 1 1746.56 322)">Medium</text>
  <text style="stroke:none;fill:black;font-family:-apple-system,&quot;SF Pro Display&quot;,&quot;SF Pro Text&quot;,Helvetica,sans-serif;text-anchor:middle;" transform="matrix(1 0 0 1 2043.27 322)">Semibold</text>
  <text style="stroke:none;fill:black;font-family:-apple-system,&quot;SF Pro Display&quot;,&quot;SF Pro Text&quot;,Helvetica,sans-serif;text-anchor:middle;" transform="matrix(1 0 0 1 2339.98 322)">Bold</text>
  <text style="stroke:none;fill:black;font-family:-apple-system,&quot;SF Pro Display&quot;,&quot;SF Pro Text&quot;,Helvetica,sans-serif;text-anchor:middle;" transform="matrix(1 0 0 1 2636.69 322)">Heavy</text>
  <text style="stroke:none;fill:black;font-family:-apple-system,&quot;SF Pro Display&quot;,&quot;SF Pro Text&quot;,Helvetica,sans-serif;text-anchor:middle;" transform="matrix(1 0 0 1 2933.4 322)">Black</text>
  <line id="" style="fill:none;stroke:black;opacity:1;stroke-width:0.5;" x1="263" x2="3036" y1="1903" y2="1903"/>
  <g id="" transform="matrix(1 0 0 1 263 1933)">
   <path d="M 9.24805 0.830078 C 13.5547 0.830078 17.1387 -2.74414 17.1387 -7.05078 C 17.1387 -11.3574 13.5449 -14.9316 9.23828 -14.9316 C 4.94141 -14.9316 1.36719 -11.3574 1.36719 -7.05078 C 1.36719 -2.74414 4.95117 0.830078 9.24805 0.830078 Z M 9.24805 -0.654297 C 5.70312 -0.654297 2.87109 -3.49609 2.87109 -7.05078 C 2.87109 -10.6055 5.69336 -13.4473 9.23828 -13.4473 C 12.793 -13.4473 15.6348 -10.6055 15.6445 -7.05078 C 15.6543 -3.49609 12.8027 -0.654297 9.24805 -0.654297 Z M 9.22852 -3.42773 C 9.69727 -3.42773 9.9707 -3.74023 9.9707 -4.25781 L 9.9707 -6.31836 L 12.1973 -6.31836 C 12.6953 -6.31836 13.0371 -6.57227 13.0371 -7.04102 C 13.0371 -7.51953 12.7148 -7.7832 12.1973 -7.7832 L 9.9707 -7.7832 L 9.9707 -10.0098 C 9.9707 -10.5273 9.69727 -10.8496 9.22852 -10.8496 C 8.75977 -10.8496 8.50586 -10.5078 8.50586 -10.0098 L 8.50586 -7.7832 L 6.29883 -7.7832 C 5.78125 -7.7832 5.44922 -7.51953 5.44922 -7.04102 C 5.44922 -6.57227 5.80078 -6.31836 6.29883 -6.31836 L 8.50586 -6.31836 L 8.50586 -4.25781 C 8.50586 -3.75977 8.75977 -3.42773 9.22852 -3.42773 Z"/>
  </g>
  <g id="" transform="matrix(1 0 0 1 281.506 1933)">
   <path d="M 11.709 2.91016 C 17.1582 2.91016 21.6699 -1.60156 21.6699 -7.05078 C 21.6699 -12.4902 17.1484 -17.0117 11.6992 -17.0117 C 6.25977 -17.0117 1.74805 -12.4902 1.74805 -7.05078 C 1.74805 -1.60156 6.26953 2.91016 11.709 2.91016 Z M 11.709 1.25 C 7.09961 1.25 3.41797 -2.44141 3.41797 -7.05078 C 3.41797 -11.6504 7.08984 -15.3516 11.6992 -15.3516 C 16.3086 -15.3516 20 -11.6504 20.0098 -7.05078 C 20.0195 -2.44141 16.3184 1.25 11.709 1.25 Z M 11.6895 -2.41211 C 12.207 -2.41211 12.5195 -2.77344 12.5195 -3.33984 L 12.5195 -6.23047 L 15.5762 -6.23047 C 16.123 -6.23047 16.5039 -6.51367 16.5039 -7.03125 C 16.5039 -7.55859 16.1426 -7.86133 15.5762 -7.86133 L 12.5195 -7.86133 L 12.5195 -10.9277 C 12.5195 -11.5039 12.207 -11.8555 11.6895 -11.8555 C 11.1719 -11.8555 10.8789 -11.4844 10.8789 -10.9277 L 10.8789 -7.86133 L 7.83203 -7.86133 C 7.26562 -7.86133 6.89453 -7.55859 6.89453 -7.03125 C 6.89453 -6.51367 7.28516 -6.23047 7.83203 -6.23047 L 10.8789 -6.23047 L 10.8789 -3.33984 C 10.8789 -2.79297 11.1719 -2.41211 11.6895 -2.41211 Z"/>
  </g>
  <g id="" transform="matrix(1 0 0 1 304.924 1933)">
   <path d="M 14.9707 5.67383 C 21.9336 5.67383 27.6953 -0.078125 27.6953 -7.04102 C 27.6953 -14.0039 21.9238 -19.7559 14.9609 -19.7559 C 8.00781 -19.7559 2.25586 -14.0039 2.25586 -7.04102 C 2.25586 -0.078125 8.01758 5.67383 14.9707 5.67383 Z M 14.9707 3.85742 C 8.93555 3.85742 4.08203 -1.00586 4.08203 -7.04102 C 4.08203 -13.0762 8.92578 -17.9395 14.9609 -17.9395 C 21.0059 -17.9395 25.8594 -13.0762 25.8691 -7.04102 C 25.8789 -1.00586 21.0156 3.85742 14.9707 3.85742 Z M 14.9512 -1.06445 C 15.5176 -1.06445 15.8691 -1.45508 15.8691 -2.06055 L 15.8691 -6.13281 L 20.1074 -6.13281 C 20.6934 -6.13281 21.1133 -6.46484 21.1133 -7.02148 C 21.1133 -7.59766 20.7227 -7.93945 20.1074 -7.93945 L 15.8691 -7.93945 L 15.8691 -12.1875 C 15.8691 -12.8027 15.5176 -13.1934 14.9512 -13.1934 C 14.3848 -13.1934 14.0625 -12.7832 14.0625 -12.1875 L 14.0625 -7.93945 L 9.83398 -7.93945 C 9.21875 -7.93945 8.80859 -7.59766 8.80859 -7.02148 C 8.80859 -6.46484 9.23828 -6.13281 9.83398 -6.13281 L 14.0625 -6.13281 L 14.0625 -2.06055 C 14.0625 -1.47461 14.3848 -1.06445 14.9512 -1.06445 Z"/>
  </g>
  <text style="stroke:none;fill:black;font-family:-apple-system,&quot;SF Pro Display&quot;,&quot;SF Pro Text&quot;,Helvetica,sans-serif;font-weight:bold;" transform="matrix(1 0 0 1 263 1953)">Design Variations</text>
  <text style="stroke:none;fill:black;font-family:-apple-system,&quot;SF Pro Display&quot;,&quot;SF Pro Text&quot;,Helvetica,sans-serif;" transform="matrix(1 0 0 1 263 1971)">Symbols are supported in up to nine weights and three scales.</text>
  <text style="stroke:none;fill:black;font-family:-apple-system,&quot;SF Pro Display&quot;,&quot;SF Pro Text&quot;,Helvetica,sans-serif;" transform="matrix(1 0 0 1 263 1989)">For optimal layout with text and other symbols, vertically align</text>
  <text style="stroke:none;fill:black;font-family:-apple-system,&quot;SF Pro Display&quot;,&quot;SF Pro Text&quot;,Helvetica,sans-serif;" transform="matrix(1 0 0 1 263 2007)">symbols with the adjacent text.</text>
  <rect height="14" id="" style="fill:#00AEEF;stroke:none;opacity:0.4;" width="3" x="776" y="1919"/>
  <g id="" transform="matrix(1 0 0 1 779 1933)">
   <path d="M 10.5273 0 L 12.373 0 L 7.17773 -14.0918 L 5.43945 -14.0918 L 0.244141 0 L 2.08984 0 L 3.50586 -4.0332 L 9.11133 -4.0332 Z M 6.2793 -11.9531 L 6.33789 -11.9531 L 8.59375 -5.52734 L 4.02344 -5.52734 Z"/>
  </g>
  <rect height="14" id="" style="fill:#00AEEF;stroke:none;opacity:0.4;" width="3" x="791.617" y="1919"/>
  <text style="stroke:none;fill:black;font-family:-apple-system,&quot;SF Pro Display&quot;,&quot;SF Pro Text&quot;,Helvetica,sans-serif;font-weight:bold;" transform="matrix(1 0 0 1 776 1953)">Margins</text>
  <text style="stroke:none;fill:black;font-family:-apple-system,&quot;SF Pro Display&quot;,&quot;SF Pro Text&quot;,Helvetica,sans-serif;" transform="matrix(1 0 0 1 776 1971)">Leading and trailing margins on the left and right side of each symbol</text>
  <text style="stroke:none;fill:black;font-family:-apple-system,&quot;SF Pro Display&quot;,&quot;SF Pro Text&quot;,Helvetica,sans-serif;" transform="matrix(1 0 0 1 776 1989)">can be adjusted by modifying the width of the blue rectangles.</text>
  <text style="stroke:none;fill:black;font-family:-apple-system,&quot;SF Pro Display&quot;,&quot;SF Pro Text&quot;,Helvetica,sans-serif;" transform="matrix(1 0 0 1 776 2007)">Modifications are automatically applied proportionally to all</text>
  <text style="stroke:none;fill:black;font-family:-apple-system,&quot;SF Pro Display&quot;,&quot;SF Pro Text&quot;,Helvetica,sans-serif;" transform="matrix(1 0 0 1 776 2025)">scales and weights.</text>
  <g id="" transform="matrix(1 0 0 1 1289 1933)">
   <path d="M 2.83203 3.11523 L 4.375 4.6582 C 5.22461 5.48828 6.19141 5.41992 7.06055 4.46289 L 17.2754 -6.66016 C 17.7051 -6.36719 18.0957 -6.37695 18.5645 -6.47461 L 19.6094 -6.68945 L 20.3027 -5.99609 L 20.2539 -5.47852 C 20.1855 -4.95117 20.3516 -4.53125 20.8496 -4.0332 L 21.6602 -3.22266 C 22.168 -2.71484 22.8223 -2.68555 23.3008 -3.16406 L 26.5527 -6.41602 C 27.0312 -6.89453 27.0117 -7.54883 26.5039 -8.05664 L 25.6836 -8.87695 C 25.1855 -9.375 24.7754 -9.55078 24.2383 -9.47266 L 23.7109 -9.41406 L 23.0566 -10.0781 L 23.3398 -11.2207 C 23.4863 -11.7871 23.3398 -12.2559 22.7148 -12.8613 L 20.3027 -15.2539 C 16.7578 -18.7793 12.2266 -18.6719 9.11133 -15.5371 C 8.69141 -15.1074 8.64258 -14.5215 8.91602 -14.0918 C 9.15039 -13.7207 9.62891 -13.4961 10.2734 -13.6621 C 11.7871 -14.043 13.3008 -13.9258 14.7852 -12.9199 L 14.1602 -11.3379 C 13.9258 -10.752 13.9453 -10.2734 14.1797 -9.83398 L 3.01758 0.439453 C 2.08008 1.30859 1.97266 2.25586 2.83203 3.11523 Z M 10.6738 -15.1465 C 13.3398 -17.1387 16.6504 -16.8262 19.0527 -14.4141 L 21.6797 -11.8066 C 21.9141 -11.5723 21.9434 -11.3867 21.8848 -11.0938 L 21.5039 -9.53125 L 23.0762 -7.95898 L 24.043 -8.04688 C 24.3262 -8.07617 24.4141 -8.05664 24.6387 -7.83203 L 25.2637 -7.20703 L 22.5098 -4.46289 L 21.8848 -5.07812 C 21.6602 -5.30273 21.6406 -5.40039 21.6699 -5.68359 L 21.7578 -6.64062 L 20.1953 -8.20312 L 18.5742 -7.89062 C 18.291 -7.83203 18.1445 -7.83203 17.9102 -8.07617 L 15.7324 -10.2539 C 15.5078 -10.4883 15.4785 -10.625 15.6055 -10.9473 L 16.5527 -13.2227 C 14.9512 -14.7559 12.8418 -15.6055 10.8008 -14.9512 C 10.7129 -14.9219 10.6445 -14.9414 10.6152 -14.9805 C 10.5859 -15.0293 10.5859 -15.0781 10.6738 -15.1465 Z M 4.10156 2.41211 C 3.61328 1.91406 3.78906 1.61133 4.12109 1.30859 L 15.0781 -8.80859 L 16.3086 -7.57812 L 6.15234 3.34961 C 5.84961 3.68164 5.46875 3.7793 5.06836 3.37891 Z"/>
  </g>
  <text style="stroke:none;fill:black;font-family:-apple-system,&quot;SF Pro Display&quot;,&quot;SF Pro Text&quot;,Helvetica,sans-serif;font-weight:bold;" transform="matrix(1 0 0 1 1289 1953)">Exporting</text>
  <text style="stroke:none;fill:black;font-family:-apple-system,&quot;SF Pro Display&quot;,&quot;SF Pro Text&quot;,Helvetica,sans-serif;" transform="matrix(1 0 0 1 1289 1971)">Symbols should be outlined when exporting to ensure the</text>
  <text style="stroke:none;fill:black;font-family:-apple-system,&quot;SF Pro Display&quot;,&quot;SF Pro Text&quot;,Helvetica,sans-serif;" transform="matrix(1 0 0 1 1289 1989)">design is preserved when submitting to Xcode.</text>
  <text id="template-version" style="stroke:none;fill:black;font-family:-apple-system,&quot;SF Pro Display&quot;,&quot;SF Pro Text&quot;,Helvetica,sans-serif;text-anchor:end;" transform="matrix(1 0 0 1 3036 1933)">Template v.1.0</text>
  <text style="stroke:none;fill:black;font-family:-apple-system,&quot;SF Pro Display&quot;,&quot;SF Pro Text&quot;,Helvetica,sans-serif;text-anchor:end;" transform="matrix(1 0 0 1 3036 1951)">Generated from wifi.slash</text>
  <text style="stroke:none;fill:black;font-family:-apple-system,&quot;SF Pro Display&quot;,&quot;SF Pro Text&quot;,Helvetica,sans-serif;text-anchor:end;" transform="matrix(1 0 0 1 3036 1969)">Typeset at 100 points</text>
  <text style="stroke:none;fill:black;font-family:-apple-system,&quot;SF Pro Display&quot;,&quot;SF Pro Text&quot;,Helvetica,sans-serif;" transform="matrix(1 0 0 1 263 726)">Small</text>
  <text style="stroke:none;fill:black;font-family:-apple-system,&quot;SF Pro Display&quot;,&quot;SF Pro Text&quot;,Helvetica,sans-serif;" transform="matrix(1 0 0 1 263 1156)">Medium</text>
  <text style="stroke:none;fill:black;font-family:-apple-system,&quot;SF Pro Display&quot;,&quot;SF Pro Text&quot;,Helvetica,sans-serif;" transform="matrix(1 0 0 1 263 1586)">Large</text>
 </g>
 <g id="Guides">
  <g id="H-reference" style="fill:#27AAE1;stroke:none;" transform="matrix(1 0 0 1 339 696)">
   <path d="M 54.9316 0 L 57.666 0 L 30.5664 -70.459 L 28.0762 -70.459 L 0.976562 0 L 3.66211 0 L 12.9395 -24.4629 L 45.7031 -24.4629 Z M 29.1992 -67.0898 L 29.4434 -67.0898 L 44.8242 -26.709 L 13.8184 -26.709 Z"/>
  </g>
  <line id="Baseline-S" style="fill:none;stroke:#27AAE1;opacity:1;stroke-width:0.577;" x1="263" x2="3036" y1="696" y2="696"/>
  <line id="Capline-S" style="fill:none;stroke:#27AAE1;opacity:1;stroke-width:0.577;" x1="263" x2="3036" y1="625.541" y2="625.541"/>
  <g id="H-reference" style="fill:#27AAE1;stroke:none;" transform="matrix(1 0 0 1 339 1126)">
   <path d="M 54.9316 0 L 57.666 0 L 30.5664 -70.459 L 28.0762 -70.459 L 0.976562 0 L 3.66211 0 L 12.9395 -24.4629 L 45.7031 -24.4629 Z M 29.1992 -67.0898 L 29.4434 -67.0898 L 44.8242 -26.709 L 13.8184 -26.709 Z"/>
  </g>
  <line id="Baseline-M" style="fill:none;stroke:#27AAE1;opacity:1;stroke-width:0.577;" x1="263" x2="3036" y1="1126" y2="1126"/>
  <line id="Capline-M" style="fill:none;stroke:#27AAE1;opacity:1;stroke-width:0.577;" x1="263" x2="3036" y1="1055.54" y2="1055.54"/>
  <g id="H-reference" style="fill:#27AAE1;stroke:none;" transform="matrix(1 0 0 1 339 1556)">
   <path d="M 54.9316 0 L 57.666 0 L 30.5664 -70.459 L 28.0762 -70.459 L 0.976562 0 L 3.66211 0 L 12.9395 -24.4629 L 45.7031 -24.4629 Z M 29.1992 -67.0898 L 29.4434 -67.0898 L 44.8242 -26.709 L 13.8184 -26.709 Z"/>
  </g>
  <line id="Baseline-L" style="fill:none;stroke:#27AAE1;opacity:1;stroke-width:0.577;" x1="263" x2="3036" y1="1556" y2="1556"/>
  <line id="Capline-L" style="fill:none;stroke:#27AAE1;opacity:1;stroke-width:0.577;" x1="263" x2="3036" y1="1485.54" y2="1485.54"/>
  <rect height="119.336" id="left-margin" style="fill:#00AEEF;stroke:none;opacity:0.4;" width="9.9535" x="1385.86" y="1030.79"/>
  <rect height="119.336" id="right-margin" style="fill:#00AEEF;stroke:none;opacity:0.4;" width="9.94628" x="1503.89" y="1030.79"/>
 </g>
 <g id="Symbols">
  <g id="Black-L" transform="matrix(1 0 0 1 2848.98 1556)">
   <path d="M 137.549 12.5 C 139.844 14.7461 143.555 14.6484 145.654 12.5 C 147.949 10.2051 147.852 6.68945 145.654 4.49219 L 31.2988 -109.814 C 29.0039 -112.109 25.293 -112.109 23.0957 -109.912 C 20.9473 -107.764 20.9961 -103.906 23.0957 -101.807 Z M 140.039 -41.6504 C 141.65 -39.9902 144.385 -40.0391 146.045 -41.7969 L 154.736 -50.5859 C 156.299 -52.1973 156.396 -54.3945 155.029 -55.957 C 139.795 -74.6094 112.256 -87.3047 84.4238 -87.3047 C 79.0039 -87.3047 73.584 -86.8164 68.2617 -85.8887 L 88.7207 -65.4785 C 108.643 -64.4531 126.074 -56.1523 140.039 -41.6504 Z M 22.7539 -41.6992 C 24.5117 -39.8926 27.2949 -39.9414 28.9551 -41.8457 C 36.0352 -49.2676 44.0918 -54.9805 52.8809 -58.9844 L 36.9629 -74.9023 C 27.7832 -69.7754 19.8242 -63.3301 13.7695 -55.957 C 12.4512 -54.3945 12.5488 -52.1973 14.0625 -50.5859 Z M 47.9492 -16.5039 C 49.7559 -14.5996 52.4902 -14.7461 54.2969 -16.7969 C 61.2793 -24.4141 71.4844 -29.3945 81.7871 -30.127 L 63.4277 -48.4375 C 53.0762 -44.9707 44.043 -38.9648 37.8906 -31.4941 C 36.4746 -29.834 36.6211 -27.6367 38.1836 -26.123 Z M 129.346 -24.8535 L 130.615 -26.123 C 132.227 -27.6367 132.373 -29.834 130.908 -31.4941 C 124.854 -38.8672 116.064 -44.7754 105.908 -48.291 Z M 84.4238 16.9434 C 86.2793 16.9434 87.9395 16.0156 90.5273 13.5254 L 105.322 -0.78125 C 106.396 -1.75781 107.373 -4.15039 106.201 -5.71289 C 101.221 -12.3535 92.9199 -16.5527 84.4238 -16.5527 C 75.8789 -16.5527 67.5781 -12.3047 62.5977 -5.56641 C 61.6211 -4.10156 62.0605 -2.09961 63.5254 -0.78125 L 78.3691 13.5254 C 80.957 16.0156 82.5684 16.9434 84.4238 16.9434 Z"/>
  </g>
  <g id="Heavy-L" transform="matrix(1 0 0 1 2552.8 1556)">
   <path d="M 137.158 12.3047 C 139.307 14.4043 142.773 14.3066 144.775 12.3047 C 146.924 10.1074 146.826 6.83594 144.775 4.78516 L 30.6152 -109.326 C 28.4668 -111.475 25.0488 -111.475 22.9492 -109.424 C 20.9473 -107.373 20.9961 -103.809 22.9492 -101.807 Z M 139.746 -42.0898 C 141.26 -40.5762 143.75 -40.625 145.264 -42.2363 L 153.809 -50.8301 C 155.225 -52.2949 155.322 -54.2969 154.053 -55.7129 C 139.014 -74.0723 111.719 -86.8164 83.8867 -86.8164 C 78.1738 -86.8164 72.5098 -86.2793 66.9922 -85.2539 L 86.3281 -65.918 C 106.934 -65.3809 125.342 -57.0801 139.746 -42.0898 Z M 22.5098 -42.1387 C 24.1211 -40.4785 26.6113 -40.5762 28.1738 -42.2852 C 35.4004 -49.9023 43.7012 -55.7617 52.832 -59.7168 L 37.5977 -74.9512 C 28.125 -69.8242 19.873 -63.2324 13.7207 -55.7129 C 12.5 -54.2969 12.5977 -52.2949 13.9648 -50.8301 Z M 47.7051 -16.8945 C 49.3652 -15.2344 51.8066 -15.332 53.4668 -17.1875 C 60.5957 -25 71.2402 -30.0781 81.9824 -30.6152 L 64.2578 -48.291 C 53.4668 -44.9219 44.0918 -38.8672 37.8418 -31.25 C 36.5234 -29.7852 36.6699 -27.7832 38.0859 -26.416 Z M 127.734 -24.5117 L 129.688 -26.416 C 131.104 -27.7832 131.25 -29.7852 129.932 -31.25 C 123.828 -38.7207 114.697 -44.6777 104.15 -48.0469 Z M 83.9355 16.4062 C 85.6445 16.4062 87.1582 15.5762 89.6484 13.1348 L 104.443 -1.12305 C 105.469 -2.00195 106.201 -4.15039 105.176 -5.56641 C 100.439 -11.8164 92.3828 -16.0156 83.9355 -16.0156 C 75.3906 -16.0156 67.2363 -11.7676 62.5488 -5.41992 C 61.6699 -4.05273 62.1094 -2.29492 63.4277 -1.12305 L 78.1738 13.1348 C 80.7129 15.5762 82.2266 16.4062 83.9355 16.4062 Z"/>
  </g>
  <g id="Bold-L" transform="matrix(1 0 0 1 2256.68 1556)">
   <path d="M 136.768 12.0605 C 138.721 13.9648 141.943 13.916 143.799 12.0605 C 145.703 10.0586 145.703 7.03125 143.799 5.07812 L 29.8828 -108.789 C 27.9297 -110.742 24.707 -110.742 22.8027 -108.838 C 20.9473 -106.982 20.9473 -103.662 22.8027 -101.855 Z M 139.502 -42.5781 C 140.82 -41.2598 142.969 -41.2598 144.385 -42.7246 L 152.734 -51.1719 C 154.004 -52.4414 154.053 -54.1992 152.979 -55.5176 C 138.135 -73.4375 111.084 -86.2305 83.3008 -86.2305 C 77.2949 -86.2305 71.3379 -85.6445 65.5273 -84.4727 L 83.5938 -66.4062 C 105.078 -66.4551 124.561 -58.1543 139.502 -42.5781 Z M 22.2656 -42.6758 C 23.6328 -41.1621 25.8789 -41.2598 27.2461 -42.7734 C 34.668 -50.5859 43.2617 -56.543 52.7832 -60.5469 L 38.3301 -75 C 28.4668 -69.8242 19.9219 -63.1348 13.623 -55.5176 C 12.5488 -54.1992 12.5977 -52.4414 13.8672 -51.1719 Z M 47.4121 -17.3828 C 48.9258 -15.8691 51.0254 -15.9668 52.5391 -17.6758 C 59.8145 -25.6348 70.9961 -30.9082 82.1777 -31.1523 L 65.1855 -48.1445 C 53.9062 -44.873 44.1406 -38.7207 37.7441 -31.0059 C 36.6211 -29.6875 36.7188 -27.9297 37.9883 -26.709 Z M 125.928 -24.0723 L 128.613 -26.709 C 129.883 -27.9297 129.98 -29.6875 128.857 -31.0059 C 122.656 -38.5254 113.135 -44.5801 102.197 -47.8027 Z M 83.3496 15.8691 C 84.8633 15.8691 86.2305 15.0879 88.6719 12.7441 L 103.418 -1.41602 C 104.395 -2.34375 104.932 -4.15039 104.004 -5.46875 C 99.5605 -11.2305 91.748 -15.4785 83.3496 -15.4785 C 74.8535 -15.4785 66.8945 -11.1328 62.5488 -5.22461 C 61.7676 -4.05273 62.1094 -2.53906 63.2812 -1.41602 L 78.0273 12.7441 C 80.4199 15.0879 81.7871 15.8691 83.3496 15.8691 Z"/>
  </g>
  <g id="Semibold-L" transform="matrix(1 0 0 1 1960.36 1556)">
   <path d="M 136.475 11.8652 C 138.33 13.7207 141.357 13.6719 143.066 11.8652 C 144.922 10.0098 144.873 7.12891 143.066 5.32227 L 29.3457 -108.398 C 27.5391 -110.254 24.5117 -110.254 22.7051 -108.447 C 20.8984 -106.689 20.9473 -103.613 22.7051 -101.855 Z M 139.307 -42.9688 C 140.527 -41.6992 142.48 -41.6992 143.799 -43.0664 L 152.002 -51.3672 C 153.174 -52.5391 153.223 -54.1504 152.246 -55.3223 C 137.549 -73.0469 110.693 -85.8887 82.9102 -85.8887 C 76.709 -85.8887 70.5078 -85.2051 64.502 -83.9844 L 81.7383 -66.748 C 103.76 -67.2363 123.975 -58.8379 139.307 -42.9688 Z M 22.0703 -43.0176 C 23.3398 -41.6504 25.3418 -41.6992 26.6113 -43.1152 C 34.1797 -51.0742 42.9688 -57.1289 52.7344 -61.1328 L 38.8184 -75 C 28.7109 -69.8242 19.9707 -63.0371 13.5742 -55.3223 C 12.5977 -54.1504 12.6465 -52.5391 13.7695 -51.3672 Z M 47.2168 -17.7246 C 48.6328 -16.3574 50.4883 -16.4062 51.9043 -17.9688 C 59.2773 -26.0742 70.8496 -31.4453 82.3242 -31.4941 L 65.8203 -47.998 C 54.248 -44.873 44.1406 -38.5742 37.6953 -30.8594 C 36.6699 -29.6387 36.7676 -28.0273 37.9395 -26.9531 Z M 124.658 -23.8281 L 127.881 -26.9531 C 129.053 -28.0273 129.15 -29.6387 128.125 -30.8594 C 121.875 -38.4277 112.061 -44.4824 100.879 -47.6074 Z M 82.959 15.4785 C 84.375 15.4785 85.6445 14.7461 87.9883 12.4512 L 102.686 -1.66016 C 103.662 -2.53906 104.053 -4.15039 103.174 -5.37109 C 98.9746 -10.8398 91.3086 -15.0879 82.959 -15.0879 C 74.4629 -15.0879 66.6992 -10.7422 62.5488 -5.12695 C 61.8164 -4.00391 62.1094 -2.68555 63.1836 -1.66016 L 77.8809 12.4512 C 80.2246 14.7949 81.4941 15.4785 82.959 15.4785 Z"/>
  </g>
  <g id="Medium-L" transform="matrix(1 0 0 1 1663.96 1556)">
   <path d="M 136.279 11.7676 C 138.037 13.4766 140.869 13.4766 142.578 11.7676 C 144.287 9.96094 144.287 7.22656 142.578 5.46875 L 28.9551 -108.105 C 27.2461 -109.863 24.3652 -109.912 22.6074 -108.154 C 20.8984 -106.445 20.9473 -103.516 22.6074 -101.855 Z M 139.111 -43.2129 C 140.283 -42.041 142.09 -42.041 143.311 -43.3594 L 151.465 -51.5137 C 152.539 -52.6367 152.588 -54.1016 151.66 -55.2246 C 137.061 -72.7051 110.352 -85.5957 82.5684 -85.5957 C 76.2207 -85.5957 69.873 -84.8633 63.7695 -83.5449 L 80.3223 -66.9922 C 102.783 -67.7734 123.535 -59.375 139.111 -43.2129 Z M 21.9238 -43.2617 C 23.0957 -42.041 24.9512 -42.0898 26.1719 -43.3594 C 33.8379 -51.4648 42.7734 -57.5684 52.6855 -61.5723 L 39.209 -75.0488 C 28.9062 -69.8242 19.9707 -62.9883 13.5254 -55.2246 C 12.5977 -54.1016 12.6465 -52.6367 13.7207 -51.5137 Z M 47.0703 -17.9688 C 48.3887 -16.6992 50.0977 -16.748 51.416 -18.2129 C 58.8867 -26.416 70.7031 -31.8359 82.4707 -31.7871 L 66.3086 -47.9004 C 54.4922 -44.873 44.1406 -38.5254 37.6465 -30.7129 C 36.6699 -29.5898 36.7676 -28.125 37.8418 -27.0996 Z M 123.73 -23.584 L 127.344 -27.0996 C 128.418 -28.125 128.516 -29.5898 127.539 -30.7129 C 121.24 -38.3301 111.279 -44.4336 99.8535 -47.5098 Z M 82.6172 15.1855 C 83.9844 15.1855 85.1562 14.502 87.5 12.2559 L 102.148 -1.85547 C 103.125 -2.68555 103.418 -4.15039 102.588 -5.27344 C 98.5352 -10.5469 90.9668 -14.7949 82.6172 -14.7949 C 74.1699 -14.7949 66.5039 -10.4004 62.5488 -5.0293 C 61.8652 -4.00391 62.1094 -2.7832 63.1348 -1.85547 L 77.7832 12.2559 C 80.0781 14.5508 81.2988 15.1855 82.6172 15.1855 Z"/>
  </g>
  <g id="Regular-L" transform="matrix(1 0 0 1 1367.64 1556)">
   <path d="M 135.986 11.5723 C 137.646 13.2324 140.283 13.2324 141.895 11.5723 C 143.506 9.91211 143.506 7.32422 141.895 5.71289 L 28.418 -107.764 C 26.8555 -109.375 24.1699 -109.424 22.5098 -107.764 C 20.8984 -106.201 20.8984 -103.467 22.5098 -101.855 Z M 138.965 -43.5547 C 139.99 -42.4805 141.553 -42.4805 142.725 -43.7012 L 150.732 -51.709 C 151.709 -52.7344 151.709 -54.0527 150.879 -55.0293 C 136.475 -72.2656 109.912 -85.2051 82.1777 -85.2051 C 75.6348 -85.2051 69.043 -84.4238 62.7441 -83.0566 L 78.4668 -67.334 C 101.465 -68.5059 122.998 -60.1074 138.965 -43.5547 Z M 21.7285 -43.6035 C 22.8027 -42.4805 24.4629 -42.5293 25.5371 -43.7012 C 33.3496 -51.9531 42.4805 -58.1055 52.6367 -62.1094 L 39.6973 -75.0488 C 29.1504 -69.8242 20.0195 -62.8906 13.4766 -55.0293 C 12.6465 -54.0527 12.6953 -52.7344 13.6719 -51.709 Z M 46.875 -18.2617 C 48.0957 -17.1387 49.6094 -17.1875 50.7812 -18.5059 C 58.3496 -26.8555 70.5566 -32.373 82.6172 -32.1777 L 66.9922 -47.8027 C 54.7852 -44.8242 44.1895 -38.4277 37.5488 -30.5176 C 36.7188 -29.541 36.8164 -28.2227 37.793 -27.2949 Z M 122.51 -23.291 L 126.611 -27.2949 C 127.588 -28.2227 127.637 -29.541 126.807 -30.5176 C 120.459 -38.1836 110.205 -44.3848 98.4863 -47.3145 Z M 82.2266 14.8438 C 83.4473 14.8438 84.5703 14.1602 86.8164 12.0117 L 101.465 -2.09961 C 102.393 -2.92969 102.539 -4.15039 101.758 -5.17578 C 97.9492 -10.1562 90.5273 -14.4531 82.2266 -14.4531 C 73.7793 -14.4531 66.2598 -10.0098 62.5 -4.88281 C 61.9141 -4.00391 62.1094 -2.92969 63.0371 -2.09961 L 77.6367 12.0117 C 79.9316 14.209 81.0059 14.8438 82.2266 14.8438 Z"/>
  </g>
  <g id="Light-L" transform="matrix(1 0 0 1 1071.52 1556)">
   <path d="M 136.377 11.6699 C 137.646 12.8906 139.697 12.8906 140.918 11.6699 C 142.188 10.3516 142.188 8.34961 140.918 7.08008 L 26.8555 -106.982 C 25.6348 -108.203 23.584 -108.301 22.2656 -106.982 C 21.0449 -105.713 21.0449 -103.662 22.2656 -102.393 Z M 138.477 -44.1406 C 139.453 -43.1152 140.918 -43.1152 142.041 -44.2383 L 149.609 -51.8555 C 150.537 -52.7832 150.537 -54.0527 149.756 -54.9805 C 135.498 -72.168 108.887 -84.7168 81.5918 -84.7168 C 74.4141 -84.7168 67.1387 -83.7891 60.2539 -82.1289 L 74.7559 -67.627 C 98.7305 -69.7266 121.973 -61.5723 138.477 -44.1406 Z M 21.2891 -44.1406 C 22.3145 -43.1152 23.7793 -43.1152 24.8047 -44.2383 C 32.8613 -52.7344 42.4316 -59.0332 53.125 -63.0371 L 40.7715 -75.3906 C 29.7363 -70.2148 20.166 -63.1348 13.4277 -54.9805 C 12.6465 -54.0527 12.6953 -52.7832 13.5742 -51.8555 Z M 46.4355 -18.7988 C 47.5586 -17.7734 48.877 -17.7734 50.0488 -19.043 C 58.1055 -27.832 71.1426 -33.3008 83.5449 -32.6172 L 68.3594 -47.7539 C 55.6152 -45.1172 44.3359 -38.6719 37.5 -30.4199 C 36.7676 -29.4922 36.8164 -28.3203 37.6953 -27.4414 Z M 120.166 -22.2168 L 125.488 -27.4414 C 126.367 -28.3203 126.465 -29.4922 125.684 -30.4199 C 118.945 -38.7207 107.52 -45.0684 94.7754 -47.6074 Z M 81.6406 14.3555 C 82.7148 14.3555 83.7402 13.7207 85.8887 11.6211 L 100.391 -2.29492 C 101.221 -3.02734 101.367 -4.10156 100.635 -5.12695 C 97.0215 -9.81445 89.5996 -13.9648 81.6406 -13.9648 C 73.584 -13.9648 66.0645 -9.7168 62.5 -4.93164 C 61.9141 -4.00391 62.0605 -3.02734 62.8906 -2.29492 L 77.3926 11.6211 C 79.541 13.7695 80.5176 14.3555 81.6406 14.3555 Z"/>
  </g>
  <g id="Thin-L" transform="matrix(1 0 0 1 775.587 1556)">
   <path d="M 136.865 11.7676 C 137.646 12.5 138.916 12.5 139.648 11.7676 C 140.527 10.8887 140.43 9.7168 139.648 8.93555 L 24.8047 -105.908 C 24.1211 -106.592 22.8516 -106.738 21.9727 -105.908 C 21.2402 -105.127 21.2402 -103.906 21.9727 -103.125 Z M 137.891 -44.873 C 138.77 -43.8965 140.039 -43.8965 141.113 -44.9707 L 148.145 -52.0508 C 148.975 -52.8809 148.975 -54.0039 148.242 -54.9316 C 134.229 -71.9727 107.471 -84.082 80.8105 -84.082 C 72.7539 -84.082 64.6484 -82.959 56.8848 -80.957 L 69.873 -67.9688 C 95.1172 -71.3379 120.703 -63.4766 137.891 -44.873 Z M 20.7031 -44.8242 C 21.6309 -43.8965 22.9004 -43.8965 23.7793 -44.9219 C 32.2266 -53.7598 42.3828 -60.2539 53.7598 -64.209 L 42.1387 -75.8301 C 30.4688 -70.7031 20.3613 -63.4277 13.4277 -54.9316 C 12.6465 -54.0039 12.7441 -52.8809 13.4766 -52.0508 Z M 117.09 -20.752 L 124.023 -27.6367 C 124.805 -28.418 124.854 -29.4922 124.219 -30.3223 C 116.943 -39.3555 104.004 -45.9473 89.8926 -47.9492 Z M 45.8984 -19.4824 C 46.875 -18.5547 47.998 -18.5547 49.0234 -19.7266 C 57.8125 -29.1504 71.875 -34.4727 84.8145 -33.2031 L 70.2637 -47.7539 C 56.7871 -45.459 44.5312 -38.9648 37.4512 -30.3223 C 36.7676 -29.4922 36.8652 -28.418 37.6465 -27.6367 Z M 80.8594 13.7207 C 81.7871 13.7207 82.6172 13.1348 84.668 11.1816 L 98.9258 -2.53906 C 99.707 -3.22266 99.8535 -4.00391 99.1211 -4.98047 C 95.8008 -9.42383 88.3301 -13.3301 80.8594 -13.3301 C 73.291 -13.3301 65.8203 -9.375 62.5488 -4.93164 C 61.9141 -4.00391 61.9629 -3.22266 62.7441 -2.53906 L 77.002 11.1816 C 79.0527 13.2324 79.9316 13.7207 80.8594 13.7207 Z"/>
  </g>
  <g id="Ultralight-L" transform="matrix(1 0 0 1 479.267 1556)">
   <path d="M 137.109 11.8164 C 137.646 12.3047 138.477 12.3047 139.014 11.8164 C 139.648 11.1816 139.551 10.4492 139.014 9.91211 L 23.7305 -105.371 C 23.291 -105.811 22.4609 -106.006 21.8262 -105.371 C 21.3379 -104.834 21.3379 -104.004 21.8262 -103.467 Z M 137.598 -45.2637 C 138.428 -44.3359 139.6 -44.3359 140.625 -45.3613 L 147.412 -52.0996 C 148.193 -52.8809 148.193 -54.0039 147.461 -54.8828 C 133.545 -71.875 106.738 -83.7891 80.4199 -83.7891 C 71.9238 -83.7891 63.3789 -82.5195 55.1758 -80.3223 L 67.334 -68.1641 C 93.2617 -72.168 120.02 -64.4531 137.598 -45.2637 Z M 20.4102 -45.166 C 21.2891 -44.3359 22.4121 -44.2871 23.291 -45.2637 C 31.8848 -54.248 42.334 -60.8887 54.1016 -64.8438 L 42.8711 -76.0742 C 30.8594 -70.9473 20.459 -63.5742 13.3789 -54.8828 C 12.6953 -54.0039 12.7441 -52.8809 13.4766 -52.0996 Z M 115.479 -20.0195 L 123.291 -27.7344 C 123.975 -28.4668 124.072 -29.4922 123.438 -30.2734 C 115.918 -39.6973 102.197 -46.4355 87.3535 -48.1445 Z M 45.5566 -19.8242 C 46.5332 -18.9941 47.5098 -18.9941 48.5352 -20.0684 C 57.6172 -29.7852 72.3145 -35.0586 85.4492 -33.4961 L 71.1914 -47.7051 C 57.3242 -45.6543 44.6289 -39.1113 37.4023 -30.2734 C 36.8164 -29.4922 36.8652 -28.4668 37.5977 -27.7344 Z M 80.4199 13.3789 C 81.25 13.3789 82.0312 12.8418 84.0332 10.9375 L 98.1934 -2.68555 C 98.9258 -3.32031 99.0723 -3.95508 98.3398 -4.93164 C 95.2148 -9.17969 87.6953 -12.9883 80.4199 -12.9883 C 73.1445 -12.9883 65.6738 -9.22852 62.5488 -4.98047 C 61.8652 -4.00391 61.9629 -3.32031 62.6465 -2.68555 L 76.8555 10.9375 C 78.8086 12.9395 79.5898 13.3789 80.4199 13.3789 Z"/>
  </g>
  <g id="Black-M" transform="matrix(1 0 0 1 2867.56 1126)">
   <path d="M 107.324 2.09961 C 109.131 3.85742 112.012 3.71094 113.623 2.09961 C 115.43 0.292969 115.283 -2.39258 113.623 -4.05273 L 24.3652 -93.2617 C 22.5586 -95.0684 19.6777 -95.0684 18.0176 -93.3594 C 16.3086 -91.6992 16.4062 -88.6719 18.0176 -87.0605 Z M 108.643 -39.8926 C 110.059 -38.4766 112.451 -38.5254 113.916 -40.0391 L 120.654 -46.8262 C 121.973 -48.1934 122.119 -50.1465 120.898 -51.5625 C 108.936 -66.4062 87.207 -75.9766 65.8203 -75.9766 C 61.6699 -75.9766 57.4707 -75.6348 53.3203 -74.9023 L 70.0684 -58.2031 C 85.0098 -57.2266 98.1934 -50.9766 108.643 -39.8926 Z M 17.7734 -39.8926 C 19.2871 -38.3301 21.7285 -38.3789 23.1934 -40.0391 C 28.5645 -45.6543 34.668 -50.0488 41.3574 -53.125 L 28.3691 -66.1133 C 21.4355 -62.207 15.3809 -57.2754 10.791 -51.5625 C 9.57031 -50.1465 9.7168 -48.1934 11.0352 -46.8262 Z M 101.172 -27.0996 L 101.953 -27.8809 C 103.32 -29.1992 103.467 -31.1523 102.197 -32.6172 C 97.4121 -38.5254 90.3809 -43.1152 82.4707 -45.8008 Z M 37.2559 -20.4102 C 38.8672 -18.75 41.2598 -18.8965 42.8223 -20.6543 C 48.3398 -26.5625 56.0059 -30.2246 63.623 -30.8594 L 48.7793 -45.6543 C 41.0645 -42.9688 34.2285 -38.4277 29.4922 -32.6172 C 28.2227 -31.1523 28.3691 -29.1992 29.7363 -27.8809 Z M 65.8203 5.61523 C 67.4316 5.61523 68.7988 4.83398 70.8496 2.83203 L 82.3242 -8.25195 C 83.1543 -8.98438 84.1309 -11.1328 83.1543 -12.4512 C 79.0039 -18.0176 72.3145 -21.1426 65.8203 -21.1426 C 59.375 -21.1426 52.6855 -18.0664 48.5352 -12.4512 C 47.6562 -11.1328 48.0957 -9.375 49.3652 -8.25195 L 60.8398 2.83203 C 62.8906 4.83398 64.2578 5.61523 65.8203 5.61523 Z"/>
  </g>
  <g id="Heavy-M" transform="matrix(1 0 0 1 2571.28 1126)">
   <path d="M 106.787 1.85547 C 108.545 3.51562 111.279 3.41797 112.891 1.85547 C 114.6 0.0976562 114.502 -2.49023 112.891 -4.15039 L 24.0234 -92.9199 C 22.3145 -94.6289 19.5312 -94.6777 17.9199 -93.0176 C 16.2598 -91.4062 16.3086 -88.5254 17.9199 -86.9629 Z M 108.447 -40.2344 C 109.766 -38.9648 111.914 -39.0137 113.232 -40.3809 L 119.873 -47.0703 C 121.094 -48.3398 121.191 -50.0977 120.117 -51.3184 C 108.301 -65.8691 86.8652 -75.5859 65.4297 -75.5859 C 61.084 -75.5859 56.7871 -75.1953 52.5391 -74.4141 L 68.3594 -58.6426 C 83.8867 -57.959 97.6562 -51.6113 108.447 -40.2344 Z M 17.5781 -40.2832 C 18.9453 -38.8672 21.1426 -38.916 22.4609 -40.3809 C 27.9785 -46.1426 34.2773 -50.6348 41.1621 -53.7109 L 28.7598 -66.0645 C 21.6309 -62.1094 15.3809 -57.0801 10.6934 -51.3184 C 9.61914 -50.0977 9.7168 -48.3398 10.9375 -47.0703 Z M 37.1094 -20.752 C 38.5254 -19.2871 40.6738 -19.3848 42.0898 -20.9473 C 47.6074 -26.9531 55.6152 -30.7617 63.5742 -31.25 L 49.3164 -45.5078 C 41.2598 -42.8711 34.1797 -38.2324 29.3945 -32.373 C 28.2715 -31.0547 28.3691 -29.3457 29.6387 -28.125 Z M 100 -27.002 L 101.172 -28.125 C 102.441 -29.3457 102.539 -31.0547 101.416 -32.373 C 96.6309 -38.2324 89.5996 -42.8223 81.543 -45.5078 Z M 65.4297 5.17578 C 66.8457 5.17578 68.1152 4.49219 70.1172 2.53906 L 81.5918 -8.54492 C 82.4219 -9.22852 83.2031 -11.1328 82.2754 -12.3535 C 78.3691 -17.5293 71.9238 -20.752 65.4297 -20.752 C 58.8867 -20.752 52.3926 -17.5293 48.5352 -12.3047 C 47.7539 -11.1328 48.0957 -9.57031 49.2676 -8.54492 L 60.6934 2.53906 C 62.6953 4.49219 63.9648 5.17578 65.4297 5.17578 Z"/>
  </g>
  <g id="Bold-M" transform="matrix(1 0 0 1 2275.06 1126)">
   <path d="M 106.25 1.5625 C 107.861 3.17383 110.498 3.07617 112.061 1.5625 C 113.672 -0.0976562 113.623 -2.63672 112.061 -4.19922 L 23.6328 -92.5781 C 22.0215 -94.1895 19.3359 -94.2383 17.7734 -92.627 C 16.2109 -91.0645 16.2598 -88.3301 17.7734 -86.8164 Z M 108.252 -40.625 C 109.424 -39.502 111.279 -39.502 112.451 -40.7715 L 119.043 -47.3633 C 120.117 -48.4863 120.166 -50 119.238 -51.0742 C 107.617 -65.2344 86.4746 -75.0977 64.9414 -75.0977 C 60.4492 -75.0977 56.0059 -74.6582 51.709 -73.877 L 66.5039 -59.082 C 82.6172 -58.7891 97.0215 -52.3438 108.252 -40.625 Z M 17.4316 -40.6738 C 18.6035 -39.4043 20.5078 -39.4531 21.6797 -40.7715 C 27.3438 -46.6797 33.7891 -51.2695 40.918 -54.3457 L 29.248 -66.0156 C 21.8262 -62.0117 15.3809 -56.8848 10.5957 -51.0742 C 9.66797 -50 9.76562 -48.4863 10.791 -47.3633 Z M 36.9141 -21.0938 C 38.1836 -19.8242 40.0391 -19.9219 41.2598 -21.3379 C 46.8262 -27.3926 55.1758 -31.3965 63.5254 -31.7383 L 49.9512 -45.3125 C 41.5039 -42.7246 34.1797 -37.9883 29.2969 -32.1289 C 28.3203 -31.0059 28.418 -29.4922 29.4922 -28.4668 Z M 98.7305 -26.8555 L 100.342 -28.4668 C 101.416 -29.4922 101.514 -31.0059 100.537 -32.1289 C 95.8008 -37.8906 88.6719 -42.5293 80.4688 -45.1172 Z M 64.9414 4.73633 C 66.2598 4.73633 67.3828 4.05273 69.3359 2.19727 L 80.7617 -8.83789 C 81.543 -9.57031 82.1289 -11.1328 81.2988 -12.2559 C 77.6855 -16.9922 71.4844 -20.2637 64.9414 -20.2637 C 58.3496 -20.2637 52.0508 -16.9434 48.4863 -12.1094 C 47.8027 -11.084 48.0957 -9.76562 49.1211 -8.83789 L 60.5469 2.19727 C 62.5 4.10156 63.623 4.73633 64.9414 4.73633 Z"/>
  </g>
  <g id="Semibold-M" transform="matrix(1 0 0 1 1978.69 1126)">
   <path d="M 105.859 1.36719 C 107.422 2.92969 109.961 2.88086 111.475 1.36719 C 113.037 -0.244141 112.988 -2.68555 111.475 -4.24805 L 23.3887 -92.334 C 21.7773 -93.8965 19.2383 -93.8965 17.6758 -92.3828 C 16.1621 -90.8691 16.2109 -88.2324 17.6758 -86.7188 Z M 108.154 -40.8691 C 109.18 -39.8438 110.84 -39.8926 111.914 -41.0156 L 118.457 -47.6074 C 119.434 -48.584 119.434 -49.9512 118.604 -50.9277 C 107.129 -64.7949 86.2305 -74.8047 64.5996 -74.8047 C 60.0098 -74.8047 55.5176 -74.3164 51.0742 -73.4863 L 65.1855 -59.375 C 81.7383 -59.3262 96.582 -52.832 108.154 -40.8691 Z M 17.2852 -40.9668 C 18.3594 -39.7949 20.0684 -39.8926 21.1426 -41.0156 C 26.8555 -47.0703 33.4961 -51.709 40.7715 -54.7852 L 29.5898 -65.9668 C 21.9727 -61.9629 15.3809 -56.7871 10.5469 -50.9277 C 9.7168 -49.9512 9.76562 -48.584 10.7422 -47.6074 Z M 36.7676 -21.3379 C 37.9395 -20.2148 39.5996 -20.2637 40.7227 -21.582 C 46.2891 -27.6855 54.834 -31.7871 63.5254 -32.0312 L 50.3418 -45.2148 C 41.6504 -42.6758 34.1309 -37.8418 29.248 -31.9336 C 28.3691 -30.9082 28.418 -29.5898 29.4434 -28.6621 Z M 97.8027 -26.7578 L 99.7559 -28.6621 C 100.732 -29.5898 100.83 -30.9082 99.9512 -31.9336 C 95.2148 -37.6465 88.0371 -42.2852 79.6875 -44.873 Z M 64.5996 4.39453 C 65.8203 4.39453 66.8945 3.80859 68.75 1.95312 L 80.2246 -9.0332 C 81.0059 -9.76562 81.3965 -11.1328 80.6641 -12.1582 C 77.2461 -16.6016 71.1914 -19.9707 64.5996 -19.9707 C 57.959 -19.9707 51.8555 -16.5039 48.4375 -11.9629 C 47.8516 -11.0352 48.0957 -9.86328 49.0234 -9.0332 L 60.4492 1.95312 C 62.3535 3.80859 63.4277 4.39453 64.5996 4.39453 Z"/>
  </g>
  <g id="Medium-M" transform="matrix(1 0 0 1 1682.22 1126)">
   <path d="M 105.518 1.2207 C 107.08 2.73438 109.57 2.68555 111.035 1.2207 C 112.549 -0.341797 112.549 -2.7832 111.035 -4.24805 L 23.1445 -92.1387 C 21.6309 -93.6523 19.1406 -93.7012 17.627 -92.1387 C 16.1621 -90.6738 16.1621 -88.1348 17.627 -86.6699 Z M 108.057 -41.1133 C 108.984 -40.1367 110.498 -40.1367 111.523 -41.2109 L 117.969 -47.7539 C 118.896 -48.6816 118.945 -49.9023 118.164 -50.7812 C 106.738 -64.4531 86.0352 -74.5605 64.3066 -74.5605 C 59.7168 -74.5605 55.0781 -74.0723 50.6348 -73.1934 L 64.209 -59.6191 C 81.0547 -59.7656 96.2402 -53.1738 108.057 -41.1133 Z M 17.1875 -41.1621 C 18.1641 -40.1367 19.7266 -40.1855 20.7031 -41.2109 C 26.5137 -47.3633 33.252 -52.002 40.6738 -55.127 L 29.834 -65.918 C 22.0703 -61.9141 15.4297 -56.6895 10.498 -50.7812 C 9.7168 -49.9023 9.76562 -48.6816 10.6934 -47.7539 Z M 36.6699 -21.5332 C 37.793 -20.5078 39.2578 -20.5566 40.2832 -21.7285 C 45.8984 -27.8809 54.6387 -32.0801 63.4766 -32.2754 L 50.6836 -45.1172 C 41.7969 -42.5781 34.1309 -37.7441 29.1992 -31.8359 C 28.3691 -30.8594 28.4668 -29.6875 29.3457 -28.8086 Z M 97.1191 -26.709 L 99.3164 -28.8086 C 100.195 -29.6875 100.293 -30.8594 99.4629 -31.8359 C 94.7754 -37.5 87.5488 -42.1387 79.1504 -44.6777 Z M 64.3555 4.15039 C 65.4785 4.15039 66.5039 3.56445 68.3594 1.80664 L 79.7852 -9.22852 C 80.5664 -9.91211 80.8105 -11.1816 80.127 -12.1094 C 76.8555 -16.3574 70.9473 -19.7266 64.3555 -19.7266 C 57.666 -19.7266 51.6602 -16.2109 48.4375 -11.8652 C 47.9004 -11.0352 48.1445 -9.96094 48.9746 -9.22852 L 60.4004 1.80664 C 62.2559 3.61328 63.2324 4.15039 64.3555 4.15039 Z"/>
  </g>
  <g id="Regular-M" transform="matrix(1 0 0 1 1385.86 1126)">
   <path d="M 105.127 1.02539 C 106.641 2.49023 109.033 2.49023 110.449 1.02539 C 111.914 -0.488281 111.963 -2.83203 110.449 -4.29688 L 22.9004 -91.8945 C 21.4355 -93.3594 18.9941 -93.3594 17.5293 -91.8945 C 16.1133 -90.4785 16.1133 -87.9883 17.5293 -86.5723 Z M 107.91 -41.3574 C 108.74 -40.5273 110.059 -40.5273 110.986 -41.4551 L 117.383 -47.9492 C 118.213 -48.7793 118.213 -49.8535 117.578 -50.6348 C 106.299 -64.0137 85.791 -74.2188 64.0137 -74.2188 C 59.2773 -74.2188 54.5898 -73.7305 50.0488 -72.8027 L 62.8906 -59.9609 C 80.1758 -60.3027 95.8496 -53.6621 107.91 -41.3574 Z M 17.041 -41.4551 C 17.9199 -40.5273 19.2871 -40.5762 20.166 -41.5039 C 26.0742 -47.7539 32.9102 -52.4414 40.4785 -55.5664 L 30.127 -65.918 C 22.2168 -61.8652 15.4297 -56.543 10.4492 -50.6348 C 9.76562 -49.8535 9.76562 -48.7793 10.5957 -47.9492 Z M 36.5723 -21.8262 C 37.5488 -20.8496 38.8184 -20.8984 39.7461 -21.9727 C 45.3613 -28.1738 54.2969 -32.5195 63.4277 -32.6172 L 51.0742 -44.9707 C 41.9434 -42.5293 34.1309 -37.5488 29.1016 -31.6406 C 28.418 -30.8105 28.4668 -29.7852 29.2969 -29.0039 Z M 96.2402 -26.6113 L 98.7305 -29.0039 C 99.5117 -29.7852 99.5605 -30.8105 98.877 -31.6406 C 94.1895 -37.2559 86.9141 -41.9434 78.418 -44.4336 Z M 64.0625 3.85742 C 65.0879 3.85742 65.9668 3.32031 67.7734 1.5625 L 79.1992 -9.42383 C 79.9805 -10.1074 80.0781 -11.1816 79.4922 -12.0117 C 76.416 -15.9668 70.6543 -19.3848 64.0625 -19.3848 C 57.2754 -19.3848 51.4648 -15.8203 48.4375 -11.7188 C 47.9492 -11.0352 48.1445 -10.1074 48.877 -9.42383 L 60.3027 1.5625 C 62.1094 3.32031 63.0371 3.85742 64.0625 3.85742 Z"/>
  </g>
  <g id="Light-M" transform="matrix(1 0 0 1 1089.66 1126)">
   <path d="M 105.469 1.07422 C 106.641 2.19727 108.496 2.19727 109.619 1.07422 C 110.742 -0.0976562 110.742 -1.9043 109.619 -3.07617 L 21.4844 -91.1621 C 20.3613 -92.2852 18.5059 -92.334 17.334 -91.1621 C 16.2109 -90.0879 16.2109 -88.1836 17.334 -87.0605 Z M 107.52 -41.8457 C 108.301 -41.0645 109.473 -41.0645 110.352 -41.9434 L 116.406 -48.0469 C 117.188 -48.8281 117.188 -49.8047 116.553 -50.5859 C 105.42 -63.916 84.8145 -73.8281 63.4766 -73.8281 C 58.1543 -73.8281 52.8809 -73.1445 47.8027 -71.9727 L 59.5703 -60.2051 C 77.7344 -61.4258 94.9707 -54.9805 107.52 -41.8457 Z M 16.6504 -41.8945 C 17.4805 -41.0645 18.7012 -41.0645 19.5312 -41.9434 C 25.6348 -48.4375 32.8613 -53.2715 40.918 -56.3477 L 31.1035 -66.2109 C 22.7539 -62.1582 15.5273 -56.7383 10.4004 -50.5859 C 9.76562 -49.8047 9.81445 -48.8281 10.5469 -48.0469 Z M 36.1816 -22.2656 C 37.0605 -21.4355 38.1836 -21.4355 39.0625 -22.4609 C 45.1172 -29.0527 54.834 -33.3008 64.3066 -33.0078 L 52.3438 -44.9707 C 42.7246 -42.7734 34.2773 -37.793 29.0527 -31.543 C 28.4668 -30.8105 28.5156 -29.834 29.248 -29.1504 Z M 94.1406 -25.6348 L 97.7051 -29.1504 C 98.4375 -29.834 98.4863 -30.8105 97.9004 -31.543 C 92.8223 -37.6953 84.5215 -42.5293 75.0977 -44.6777 Z M 63.5254 3.41797 C 64.4043 3.41797 65.2344 2.92969 66.9434 1.26953 L 78.2227 -9.61914 C 78.9551 -10.2539 79.0527 -11.1328 78.4668 -11.9141 C 75.5859 -15.6738 69.8242 -18.9453 63.5254 -18.9453 C 57.0801 -18.9453 51.2695 -15.5762 48.4375 -11.7188 C 47.9492 -11.0352 48.0957 -10.2539 48.7793 -9.61914 L 60.0586 1.26953 C 61.7676 2.92969 62.5977 3.41797 63.5254 3.41797 Z"/>
  </g>
  <g id="Thin-M" transform="matrix(1 0 0 1 793.629 1126)">
   <path d="M 105.957 1.17188 C 106.641 1.85547 107.812 1.85547 108.496 1.17188 C 109.229 0.390625 109.18 -0.683594 108.496 -1.41602 L 19.6289 -90.2344 C 18.9941 -90.8691 17.8223 -91.0156 17.0898 -90.2344 C 16.4062 -89.5508 16.4062 -88.3789 17.0898 -87.6953 Z M 106.982 -42.5293 C 107.666 -41.7969 108.691 -41.7969 109.521 -42.627 L 115.088 -48.1934 C 115.771 -48.877 115.771 -49.8047 115.186 -50.4883 C 104.248 -63.7695 83.5449 -73.2422 62.793 -73.2422 C 56.7383 -73.2422 50.6348 -72.4121 44.7754 -70.8984 L 55.1758 -60.5469 C 74.4629 -62.8906 93.7988 -56.6895 106.982 -42.5293 Z M 16.1621 -42.5293 C 16.8457 -41.7969 17.9199 -41.7969 18.6035 -42.5781 C 25.0977 -49.3652 32.8125 -54.3945 41.5039 -57.4219 L 32.3242 -66.6016 C 23.4375 -62.5977 15.6738 -57.0312 10.3516 -50.4883 C 9.76562 -49.8047 9.86328 -48.877 10.4492 -48.1934 Z M 91.3574 -24.3164 L 96.4355 -29.2969 C 97.0215 -29.9316 97.0703 -30.7617 96.5332 -31.4453 C 91.0156 -38.2812 81.3477 -43.3594 70.7031 -45.0195 Z M 35.6445 -22.9004 C 36.4258 -22.168 37.3535 -22.168 38.1836 -23.0469 C 44.8242 -30.2246 55.5176 -34.375 65.4297 -33.5449 L 54.0039 -44.9219 C 43.7012 -43.0664 34.4238 -38.0371 29.0039 -31.4453 C 28.4668 -30.7617 28.5156 -29.9316 29.1504 -29.2969 Z M 62.793 2.83203 C 63.5254 2.83203 64.2578 2.39258 65.8203 0.830078 L 76.9531 -9.86328 C 77.5391 -10.4004 77.6855 -11.0352 77.0996 -11.8164 C 74.5117 -15.2832 68.7012 -18.4082 62.793 -18.4082 C 56.8359 -18.4082 51.0254 -15.2832 48.4375 -11.7676 C 47.9492 -11.0352 48.0469 -10.4004 48.6328 -9.86328 L 59.7168 0.830078 C 61.3281 2.44141 62.0117 2.83203 62.793 2.83203 Z"/>
  </g>
  <g id="Ultralight-M" transform="matrix(1 0 0 1 497.284 1126)">
   <path d="M 106.152 1.2207 C 106.641 1.66016 107.422 1.66016 107.91 1.2207 C 108.447 0.634766 108.398 -0.0488281 107.91 -0.537109 L 18.7012 -89.7461 C 18.2617 -90.1855 17.4805 -90.2832 16.9434 -89.7461 C 16.4551 -89.2578 16.4551 -88.4766 16.9434 -88.0371 Z M 106.689 -42.8711 C 107.373 -42.1387 108.301 -42.1387 109.082 -42.9688 L 114.453 -48.291 C 115.039 -48.9258 115.039 -49.8047 114.502 -50.4883 C 103.662 -63.6719 82.9102 -72.9492 62.4023 -72.9492 C 55.957 -72.9492 49.4629 -72.0215 43.2617 -70.3613 L 52.9297 -60.6934 C 72.8027 -63.623 93.2129 -57.5684 106.689 -42.8711 Z M 15.8691 -42.8223 C 16.5527 -42.1387 17.4805 -42.1387 18.1641 -42.8711 C 24.8047 -49.8047 32.7637 -54.9316 41.7969 -58.0078 L 32.959 -66.7969 C 23.7793 -62.8418 15.7715 -57.1289 10.3516 -50.4883 C 9.81445 -49.8047 9.86328 -48.9258 10.4004 -48.291 Z M 89.9414 -23.6816 L 95.752 -29.3945 C 96.2891 -29.9805 96.3867 -30.7617 95.8496 -31.3965 C 90.1367 -38.5742 79.6875 -43.75 68.457 -45.166 Z M 35.4004 -23.1934 C 36.1328 -22.5098 36.9141 -22.5098 37.7441 -23.3887 C 44.6777 -30.8105 55.8594 -34.9121 66.0156 -33.7891 L 54.8828 -44.9219 C 44.2383 -43.2617 34.5215 -38.1836 29.0039 -31.3965 C 28.4668 -30.7617 28.5645 -29.9805 29.1016 -29.3945 Z M 62.4023 2.53906 C 63.0859 2.53906 63.7207 2.09961 65.2832 0.634766 L 76.3184 -9.96094 C 76.8555 -10.4492 77.002 -11.0352 76.416 -11.7676 C 73.9258 -15.1367 68.1641 -18.1152 62.4023 -18.1152 C 56.6895 -18.1152 50.9277 -15.1367 48.4375 -11.7676 C 47.9492 -11.0352 47.998 -10.4492 48.5352 -9.96094 L 59.5703 0.634766 C 61.1328 2.19727 61.7676 2.53906 62.4023 2.53906 Z"/>
  </g>
  <g id="Black-S" transform="matrix(1 0 0 1 2881.84 696)">
   <path d="M 84.0332 -6.00586 C 85.4492 -4.63867 87.6953 -4.73633 88.9648 -6.00586 C 90.3809 -7.42188 90.2832 -9.52148 88.9648 -10.8398 L 19.0918 -80.6641 C 17.6758 -82.0801 15.4297 -82.0801 14.1113 -80.7617 C 12.793 -79.4434 12.8418 -77.0996 14.1113 -75.8301 Z M 85.1074 -38.916 C 86.2305 -37.793 88.0859 -37.8418 89.209 -39.0137 L 94.4824 -44.3359 C 95.5078 -45.4102 95.6055 -46.9238 94.6777 -47.998 C 85.3027 -59.6191 68.3105 -67.1387 51.5625 -67.1387 C 48.291 -67.1387 45.0195 -66.8457 41.748 -66.3086 L 54.834 -53.2715 C 66.5527 -52.4902 76.9043 -47.6074 85.1074 -38.916 Z M 13.916 -38.916 C 15.0879 -37.6953 16.9922 -37.7441 18.1152 -39.0137 C 22.3633 -43.4082 27.1484 -46.875 32.373 -49.2676 L 22.2168 -59.4238 C 16.7969 -56.3477 12.0605 -52.4902 8.44727 -47.998 C 7.51953 -46.9238 7.61719 -45.4102 8.64258 -44.3359 Z M 79.1992 -28.8574 L 79.834 -29.4922 C 80.9082 -30.5176 81.0059 -32.0312 80.0293 -33.1543 C 76.2695 -37.793 70.8008 -41.3574 64.5996 -43.5059 Z M 29.1992 -23.6328 C 30.4199 -22.3633 32.2754 -22.4609 33.4961 -23.8281 C 37.8418 -28.4668 43.8477 -31.3477 49.8535 -31.8359 L 38.2812 -43.4082 C 32.1777 -41.2598 26.8066 -37.7441 23.0957 -33.1543 C 22.1191 -32.0312 22.2168 -30.5176 23.291 -29.4922 Z M 51.5625 -3.27148 C 52.7832 -3.27148 53.8574 -3.85742 55.4688 -5.41992 L 64.4531 -14.1113 C 65.1367 -14.6973 65.8691 -16.3574 65.0879 -17.3828 C 61.8652 -21.7285 56.6406 -24.1699 51.5625 -24.1699 C 46.4844 -24.1699 41.2598 -21.7285 38.0371 -17.3828 C 37.3535 -16.3574 37.6953 -14.9902 38.6719 -14.1113 L 47.6562 -5.41992 C 49.2676 -3.85742 50.3418 -3.27148 51.5625 -3.27148 Z"/>
  </g>
  <g id="Heavy-S" transform="matrix(1 0 0 1 2585.39 696)">
   <path d="M 83.5938 -6.20117 C 85.0098 -4.83398 87.207 -4.93164 88.4766 -6.20117 C 89.8926 -7.61719 89.7949 -9.7168 88.4766 -11.0352 L 18.9941 -80.5176 C 17.5781 -81.8848 15.3809 -81.8848 14.0625 -80.5664 C 12.7441 -79.248 12.793 -76.9531 14.0625 -75.6836 Z M 85.0098 -39.1113 C 86.0352 -38.0859 87.7441 -38.1348 88.7695 -39.209 L 93.9941 -44.5312 C 94.9707 -45.5078 95.0195 -46.875 94.1895 -47.8516 C 84.9121 -59.1797 68.1641 -66.8457 51.2695 -66.8457 C 47.998 -66.8457 44.6777 -66.5527 41.4062 -66.0156 L 53.9062 -53.5645 C 65.9668 -52.9297 76.6113 -47.9492 85.0098 -39.1113 Z M 13.8184 -39.1602 C 14.8926 -38.0371 16.6504 -38.0859 17.6758 -39.209 C 21.9727 -43.75 26.8555 -47.2168 32.1777 -49.6094 L 22.4609 -59.3262 C 16.8945 -56.25 12.0605 -52.3438 8.39844 -47.8516 C 7.56836 -46.875 7.61719 -45.5078 8.59375 -44.5312 Z M 29.1016 -23.8281 C 30.2246 -22.7051 31.8848 -22.7539 33.0078 -24.0234 C 37.3047 -28.6621 43.5059 -31.6895 49.707 -32.0801 L 38.5254 -43.2617 C 32.2266 -41.1621 26.7578 -37.5488 23.0469 -33.0078 C 22.168 -31.9824 22.2656 -30.6152 23.2422 -29.6875 Z M 78.5645 -28.9062 L 79.3457 -29.6875 C 80.3223 -30.6152 80.4199 -31.9824 79.541 -33.0078 C 75.8301 -37.5 70.459 -41.1133 64.2578 -43.2129 Z M 51.3184 -3.56445 C 52.4414 -3.56445 53.418 -4.10156 55.0293 -5.61523 L 64.0137 -14.3066 C 64.6484 -14.8926 65.2344 -16.3574 64.5508 -17.334 C 61.4746 -21.3867 56.4453 -23.877 51.3184 -23.877 C 46.1426 -23.877 41.0645 -21.3379 38.0371 -17.2363 C 37.4023 -16.3574 37.6953 -15.0879 38.623 -14.3066 L 47.6074 -5.61523 C 49.1699 -4.10156 50.1465 -3.56445 51.3184 -3.56445 Z"/>
  </g>
  <g id="Bold-S" transform="matrix(1 0 0 1 2289 696)">
   <path d="M 83.1543 -6.44531 C 84.5215 -5.07812 86.7188 -5.12695 87.9883 -6.44531 C 89.3066 -7.8125 89.3066 -9.91211 87.9883 -11.2305 L 18.8477 -80.3223 C 17.4805 -81.6895 15.2832 -81.6895 13.9648 -80.3711 C 12.6953 -79.0527 12.6953 -76.8066 13.9648 -75.5371 Z M 84.9121 -39.3555 C 85.8398 -38.4277 87.3047 -38.4766 88.2324 -39.4531 L 93.457 -44.7266 C 94.3359 -45.6055 94.3848 -46.7773 93.6523 -47.6562 C 84.5215 -58.7402 67.9688 -66.5527 50.9766 -66.5527 C 47.6562 -66.5527 44.2871 -66.2598 41.0645 -65.6738 L 52.8809 -53.8574 C 65.2832 -53.418 76.2207 -48.3398 84.9121 -39.3555 Z M 13.7207 -39.4043 C 14.6973 -38.3789 16.2109 -38.4277 17.1387 -39.4531 C 21.4844 -44.043 26.4648 -47.6074 31.9336 -50 L 22.7051 -59.2773 C 16.9922 -56.1523 12.0605 -52.1484 8.30078 -47.6562 C 7.61719 -46.7773 7.66602 -45.6055 8.49609 -44.7266 Z M 29.0039 -24.0723 C 30.0293 -23.0469 31.4941 -23.0957 32.4707 -24.2188 C 36.7188 -28.8574 43.0664 -32.0312 49.5605 -32.4219 L 38.8184 -43.1152 C 32.3242 -41.0645 26.7578 -37.3535 22.9492 -32.8125 C 22.2168 -31.8848 22.2656 -30.7129 23.1445 -29.8828 Z M 77.832 -28.9062 L 78.8086 -29.8828 C 79.6875 -30.7129 79.7852 -31.8848 79.0039 -32.8125 C 75.3418 -37.207 70.0195 -40.7715 63.8184 -42.9199 Z M 51.0254 -3.85742 C 52.0508 -3.85742 52.9785 -4.3457 54.4922 -5.85938 L 63.4766 -14.502 C 64.1602 -15.0879 64.5508 -16.3574 63.916 -17.2363 C 61.084 -20.9961 56.2012 -23.584 51.0254 -23.584 C 45.752 -23.584 40.8203 -20.9473 37.9883 -17.0898 C 37.4512 -16.3086 37.6953 -15.2344 38.5254 -14.502 L 47.5098 -5.85938 C 49.0234 -4.3457 49.9512 -3.85742 51.0254 -3.85742 Z"/>
  </g>
  <g id="Semibold-S" transform="matrix(1 0 0 1 1992.49 696)">
   <path d="M 82.8125 -6.5918 C 84.1309 -5.27344 86.3281 -5.27344 87.5977 -6.5918 C 88.916 -7.95898 88.916 -10.0586 87.5977 -11.377 L 18.7988 -80.1758 C 17.4316 -81.543 15.2344 -81.543 13.916 -80.2246 C 12.6465 -78.9551 12.6465 -76.6602 13.916 -75.3906 Z M 84.8633 -39.502 C 85.6934 -38.6719 87.0117 -38.7207 87.8906 -39.5996 L 93.1152 -44.873 C 93.8965 -45.7031 93.9453 -46.7773 93.2617 -47.5098 C 84.2285 -58.3984 67.8711 -66.3574 50.7812 -66.3574 C 47.4121 -66.3574 44.043 -66.0645 40.7715 -65.4785 L 52.1484 -54.1016 C 64.8438 -53.7598 75.9766 -48.584 84.8633 -39.502 Z M 13.6719 -39.5508 C 14.5508 -38.6719 15.918 -38.7207 16.7969 -39.6484 C 21.1914 -44.2871 26.2207 -47.8516 31.7871 -50.293 L 22.8516 -59.2285 C 17.041 -56.0547 12.0605 -52.0508 8.25195 -47.5098 C 7.61719 -46.7773 7.66602 -45.7031 8.44727 -44.873 Z M 28.9551 -24.2188 C 29.8828 -23.291 31.2012 -23.3398 32.1289 -24.3652 C 36.3281 -29.0039 42.8223 -32.2754 49.4629 -32.6172 L 39.0625 -43.0664 C 32.373 -40.9668 26.709 -37.207 22.9004 -32.666 C 22.2168 -31.8848 22.2656 -30.8105 23.0957 -30.0293 Z M 77.2949 -28.9062 L 78.4668 -30.0293 C 79.248 -30.8105 79.3457 -31.8848 78.6133 -32.666 C 75.0488 -36.9629 69.7266 -40.5762 63.5254 -42.6758 Z M 50.7812 -4.05273 C 51.7578 -4.05273 52.6367 -4.54102 54.1504 -6.00586 L 63.1348 -14.6484 C 63.7695 -15.2344 64.1113 -16.4062 63.5254 -17.1875 C 60.791 -20.752 56.0547 -23.3887 50.7812 -23.3887 C 45.459 -23.3887 40.6738 -20.6543 37.9883 -16.9922 C 37.5 -16.3086 37.7441 -15.332 38.4766 -14.6484 L 47.4609 -6.00586 C 48.9746 -4.54102 49.8047 -4.05273 50.7812 -4.05273 Z"/>
  </g>
  <g id="Medium-S" transform="matrix(1 0 0 1 1695.95 696)">
   <path d="M 82.5684 -6.73828 C 83.8867 -5.37109 86.084 -5.41992 87.3535 -6.73828 C 88.623 -8.05664 88.6719 -10.1562 87.3535 -11.4746 L 18.7012 -80.0781 C 17.3828 -81.4453 15.1855 -81.4453 13.8672 -80.127 C 12.5977 -78.8086 12.5977 -76.6113 13.8672 -75.3418 Z M 84.8145 -39.5996 C 85.5469 -38.8672 86.8164 -38.8672 87.5977 -39.6973 L 92.8223 -44.9707 C 93.5547 -45.752 93.6035 -46.7285 92.9688 -47.4121 C 83.9844 -58.1543 67.7734 -66.2109 50.6348 -66.2109 C 47.2168 -66.2109 43.8477 -65.8691 40.5762 -65.2832 L 51.6113 -54.248 C 64.502 -54.0039 75.7812 -48.7793 84.8145 -39.5996 Z M 13.623 -39.6973 C 14.4043 -38.8672 15.7227 -38.916 16.5039 -39.7461 C 20.9473 -44.4824 26.0742 -48.0469 31.6895 -50.4883 L 22.998 -59.1797 C 17.0898 -56.0059 12.0117 -51.9531 8.25195 -47.4121 C 7.61719 -46.7285 7.66602 -45.752 8.39844 -44.9707 Z M 28.9062 -24.3164 C 29.7852 -23.4863 31.0059 -23.5352 31.8359 -24.5117 C 36.0352 -29.1504 42.5781 -32.4707 49.4141 -32.7637 L 39.209 -42.9688 C 32.4219 -40.918 26.709 -37.1094 22.9004 -32.5684 C 22.2168 -31.8359 22.3145 -30.8594 23.0469 -30.127 Z M 76.9531 -28.9551 L 78.1738 -30.127 C 78.9062 -30.8594 79.0039 -31.8359 78.3203 -32.5684 C 74.7559 -36.8164 69.5312 -40.3809 63.3301 -42.5293 Z M 50.6348 -4.19922 C 51.5625 -4.19922 52.3926 -4.6875 53.8574 -6.10352 L 62.8906 -14.7949 C 63.5254 -15.332 63.7207 -16.4062 63.1836 -17.1387 C 60.5469 -20.5078 55.9082 -23.2422 50.6348 -23.2422 C 45.2637 -23.2422 40.5762 -20.4102 37.9395 -16.8945 C 37.5488 -16.2598 37.7441 -15.4297 38.4277 -14.7949 L 47.4121 -6.10352 C 48.9258 -4.6875 49.707 -4.19922 50.6348 -4.19922 Z"/>
  </g>
  <g id="Regular-S" transform="matrix(1 0 0 1 1399.43 696)">
   <path d="M 82.2266 -6.88477 C 83.5449 -5.56641 85.6934 -5.56641 86.9629 -6.88477 C 88.2324 -8.20312 88.2812 -10.3027 86.9629 -11.6211 L 18.6035 -79.9805 C 17.334 -81.2988 15.1367 -81.2988 13.8184 -79.9805 C 12.5488 -78.7109 12.5488 -76.5137 13.8184 -75.2441 Z M 84.7656 -39.7949 C 85.4004 -39.1113 86.5234 -39.1113 87.2559 -39.8926 L 92.4805 -45.1172 C 93.1641 -45.8008 93.1641 -46.6797 92.627 -47.3145 C 83.6914 -57.8613 67.6758 -66.0156 50.3906 -66.0156 C 46.9727 -66.0156 43.6035 -65.6738 40.332 -65.0879 L 50.9277 -54.4922 C 64.0137 -54.3457 75.5371 -49.0723 84.7656 -39.7949 Z M 13.5742 -39.8438 C 14.2578 -39.1113 15.4297 -39.1602 16.1621 -39.8926 C 20.6543 -44.6777 25.8301 -48.3398 31.543 -50.7324 L 23.1445 -59.1309 C 17.1875 -55.9082 12.0117 -51.8555 8.20312 -47.3145 C 7.66602 -46.6797 7.66602 -45.8008 8.34961 -45.1172 Z M 28.8574 -24.4629 C 29.6387 -23.7305 30.7129 -23.7793 31.4941 -24.6094 C 35.6445 -29.2969 42.334 -32.7148 49.3164 -33.0078 L 39.4043 -42.8711 C 32.5195 -40.8203 26.6602 -36.9629 22.8516 -32.4707 C 22.2656 -31.7871 22.3145 -30.9082 22.998 -30.2734 Z M 76.416 -28.9551 L 77.832 -30.2734 C 78.5156 -30.9082 78.5645 -31.7871 77.9785 -32.4707 C 74.4629 -36.5723 69.2383 -40.1855 63.0371 -42.334 Z M 50.4395 -4.39453 C 51.3184 -4.39453 52.0996 -4.83398 53.5156 -6.25 L 62.5488 -14.9414 C 63.1836 -15.4785 63.2812 -16.4062 62.793 -17.0898 C 60.2539 -20.2637 55.7617 -23.0469 50.4395 -23.0469 C 44.9707 -23.0469 40.3809 -20.1172 37.9395 -16.7969 C 37.5977 -16.2598 37.7441 -15.4785 38.3789 -14.9414 L 47.3633 -6.25 C 48.8281 -4.83398 49.6094 -4.39453 50.4395 -4.39453 Z"/>
  </g>
  <g id="Light-S" transform="matrix(1 0 0 1 1103.18 696)">
   <path d="M 82.5195 -6.83594 C 83.5449 -5.81055 85.2051 -5.81055 86.2305 -6.83594 C 87.207 -7.86133 87.2559 -9.47266 86.2305 -10.498 L 17.3828 -79.3457 C 16.3574 -80.3223 14.6973 -80.3711 13.6719 -79.3457 C 12.6953 -78.3691 12.6953 -76.6602 13.6719 -75.6348 Z M 84.375 -40.2344 C 85.0098 -39.5996 85.9863 -39.5996 86.7188 -40.332 L 91.6016 -45.2148 C 92.1875 -45.8496 92.1875 -46.6797 91.6992 -47.2656 C 82.9102 -57.7637 66.8457 -65.625 49.9512 -65.625 C 45.9961 -65.625 42.0898 -65.1855 38.3301 -64.3555 L 47.9492 -54.6875 C 61.8652 -55.3223 74.7559 -50.1953 84.375 -40.2344 Z M 13.2324 -40.2832 C 13.8672 -39.5996 14.8926 -39.5996 15.5762 -40.332 C 20.2637 -45.3125 25.7812 -49.0723 31.9336 -51.4648 L 24.0234 -59.375 C 17.627 -56.2012 12.1094 -52.002 8.1543 -47.2656 C 7.66602 -46.6797 7.66602 -45.8496 8.30078 -45.2148 Z M 28.5156 -24.9023 C 29.248 -24.2188 30.1758 -24.2188 30.9082 -25.0488 C 35.4492 -30.0781 42.7734 -33.3984 50.0488 -33.3496 L 40.5273 -42.8711 C 33.1543 -41.0156 26.8066 -37.1582 22.8027 -32.373 C 22.2656 -31.7871 22.3145 -30.957 22.9492 -30.4199 Z M 74.5605 -28.0762 L 76.9531 -30.4199 C 77.5391 -30.957 77.5879 -31.7871 77.0996 -32.373 C 73.2422 -37.0117 67.1387 -40.7227 60.1074 -42.5293 Z M 49.9512 -4.78516 C 50.7324 -4.78516 51.416 -5.17578 52.7832 -6.54297 L 61.6699 -15.0879 C 62.2559 -15.5762 62.3535 -16.3574 61.8652 -16.9922 C 59.5215 -20.0195 55.0293 -22.6562 49.9512 -22.6562 C 44.8242 -22.6562 40.2344 -19.9219 37.9395 -16.7969 C 37.5977 -16.2598 37.6953 -15.5762 38.2812 -15.0879 L 47.168 -6.54297 C 48.5352 -5.17578 49.2188 -4.78516 49.9512 -4.78516 Z"/>
  </g>
  <g id="Thin-S" transform="matrix(1 0 0 1 807.081 696)">
   <path d="M 82.9102 -6.73828 C 83.5449 -6.10352 84.5703 -6.10352 85.2051 -6.73828 C 85.8887 -7.42188 85.8398 -8.39844 85.2051 -9.0332 L 15.7227 -78.5156 C 15.1367 -79.1016 14.1113 -79.1992 13.4277 -78.5156 C 12.793 -77.8809 12.793 -76.8066 13.4277 -76.2207 Z M 83.8867 -40.8203 C 84.4727 -40.2344 85.3027 -40.2344 85.9863 -40.8691 L 90.4297 -45.3613 C 90.9668 -45.8984 90.9668 -46.6309 90.5273 -47.2168 C 81.8848 -57.6172 65.7227 -65.1367 49.3164 -65.1367 C 44.7266 -65.1367 40.0879 -64.502 35.6445 -63.3789 L 44.043 -54.9805 C 58.9355 -56.5918 73.7305 -51.709 83.8867 -40.8203 Z M 12.7441 -40.8203 C 13.3301 -40.2344 14.1602 -40.2344 14.7461 -40.8691 C 19.7754 -46.1426 25.7324 -50 32.4219 -52.4414 L 25.0977 -59.7168 C 18.2129 -56.5918 12.2559 -52.2461 8.1543 -47.2168 C 7.66602 -46.6309 7.71484 -45.8984 8.20312 -45.3613 Z M 28.0273 -25.4395 C 28.6621 -24.8535 29.4434 -24.8535 30.0781 -25.5859 C 35.2051 -31.1035 43.3594 -34.375 51.0254 -33.7891 L 41.9922 -42.8223 C 34.082 -41.3086 26.9531 -37.4023 22.7539 -32.2754 C 22.3145 -31.7383 22.3633 -31.0547 22.8516 -30.5664 Z M 72.1191 -26.9531 L 75.7812 -30.5664 C 76.2695 -31.0547 76.3184 -31.7383 75.8789 -32.2754 C 71.6797 -37.5 64.3066 -41.4551 56.2012 -42.8223 Z M 49.3164 -5.27344 C 49.9512 -5.27344 50.5371 -5.66406 51.8066 -6.88477 L 60.5469 -15.2832 C 61.0352 -15.7227 61.1328 -16.3086 60.6934 -16.8945 C 58.5938 -19.6777 54.0527 -22.168 49.3164 -22.168 C 44.5801 -22.168 40.0391 -19.6777 37.9395 -16.8457 C 37.5488 -16.2598 37.6465 -15.7227 38.1348 -15.2832 L 46.875 -6.88477 C 48.1445 -5.61523 48.7305 -5.27344 49.3164 -5.27344 Z"/>
  </g>
  <g id="Ultralight-S" transform="matrix(1 0 0 1 510.688 696)">
   <path d="M 83.1055 -6.68945 C 83.5449 -6.25 84.2773 -6.25 84.7168 -6.68945 C 85.2051 -7.17773 85.1562 -7.86133 84.7168 -8.30078 L 14.8926 -78.0762 C 14.502 -78.4668 13.8184 -78.5645 13.3301 -78.0762 C 12.8906 -77.6367 12.8906 -76.9531 13.3301 -76.5137 Z M 83.6426 -41.1621 C 84.2285 -40.5273 84.9609 -40.5273 85.5957 -41.2109 L 89.8438 -45.459 C 90.332 -45.9473 90.332 -46.6309 89.8926 -47.168 C 81.3965 -57.5195 65.1367 -64.8438 49.0234 -64.8438 C 44.043 -64.8438 39.0625 -64.1602 34.3262 -62.8906 L 42.0898 -55.127 C 57.4707 -57.2754 73.1934 -52.4902 83.6426 -41.1621 Z M 12.5 -41.1133 C 13.0859 -40.5273 13.8184 -40.5762 14.3555 -41.1621 C 19.4824 -46.5332 25.6836 -50.5371 32.666 -52.9297 L 25.6836 -59.9121 C 18.5547 -56.7871 12.3535 -52.3438 8.10547 -47.168 C 7.66602 -46.6309 7.71484 -45.9473 8.1543 -45.459 Z M 70.8496 -26.3672 L 75.1953 -30.6641 C 75.6348 -31.1035 75.6836 -31.7383 75.293 -32.2266 C 70.8496 -37.793 62.8906 -41.7969 54.248 -42.9688 Z M 27.7832 -25.7324 C 28.418 -25.1465 29.0527 -25.1953 29.6875 -25.8789 C 35.0586 -31.6406 43.7012 -34.8633 51.5625 -34.0332 L 42.7734 -42.8223 C 34.5215 -41.4551 27.0508 -37.5 22.7051 -32.2266 C 22.3145 -31.7383 22.3633 -31.1035 22.8027 -30.6641 Z M 49.0234 -5.56641 C 49.5605 -5.56641 50.0488 -5.9082 51.3184 -7.08008 L 59.9609 -15.3809 C 60.4004 -15.8203 60.498 -16.2598 60.0586 -16.8457 C 58.1055 -19.5312 53.5645 -21.875 49.0234 -21.875 C 44.4824 -21.875 39.9414 -19.5312 37.9395 -16.8457 C 37.5488 -16.2598 37.5977 -15.8203 38.0859 -15.3809 L 46.7285 -7.08008 C 47.9492 -5.85938 48.4375 -5.56641 49.0234 -5.56641 Z"/>
  </g>
 </g>
</svg>
